<svg id="mdo-cloud-empty-screen" xmlns="http://www.w3.org/2000/svg" width="339.715" height="216.444" viewBox="0 0 339.715 216.444">
  <g id="Group_67" data-name="Group 67">
    <path id="Path_150" data-name="Path 150" d="M990.231,606.414H937.689V586.292h52.542c19.086,0,28.933-29.773,28.933-42.476,0-21.4-17.434-40.726-37.31-41.363a10.061,10.061,0,0,1,.648-20.112c30.781.991,56.784,29.143,56.784,61.475,0,8.724-2.823,23.787-10.781,37.546C1019.165,597.515,1005.571,606.414,990.231,606.414Z" transform="translate(-699.572 -390.017)" fill="#e9ecef"/>
    <path id="Path_151" data-name="Path 151" d="M1078.841,670.464h-.017L929.941,670.2c-33.479,0-62.864-30.232-62.864-64.7a63.22,63.22,0,0,1,63-63.293h.286a92.5,92.5,0,0,1,92.193-86.854,10.061,10.061,0,0,1,0,20.122,72.333,72.333,0,0,0-72.233,72.266c0,1.484.054,3.123.156,4.738l.833,13.047-12.828-2.539A43.7,43.7,0,0,0,887.2,605.5c0,23.744,19.98,44.574,42.763,44.574l148.9.266a10.061,10.061,0,0,1-.02,20.122Z" transform="translate(-867.077 -454.02)" fill="#e9ecef"/>
    <path id="Path_152" data-name="Path 152" d="M973.917,514.489a23.585,23.585,0,1,1-23.585-23.632,23.606,23.606,0,0,1,23.585,23.632" transform="translate(-725.528 -369.802)" fill="#e9ecef"/>
    <path id="Path_153" data-name="Path 153" d="M967.567,504.592a32.543,32.543,0,1,1-32.542-32.606,32.575,32.575,0,0,1,32.542,32.606" transform="translate(-783.094 -414.568)" fill="#e9ecef"/>
    <path id="Path_154" data-name="Path 154" d="M1007.321,495.273a40.236,40.236,0,1,1-40.237-40.315,40.274,40.274,0,0,1,40.237,40.315" transform="translate(-725.284 -454.959)" fill="#e9ecef"/>
  </g>
</svg>
