<svg xmlns="http://www.w3.org/2000/svg" viewBox="0 0 966.27 310.34"><defs><style>.cls-1,.cls-10,.cls-11,.cls-12,.cls-13,.cls-14,.cls-6,.cls-7,.cls-8{fill:#fff;stroke:#fff;}.cls-1,.cls-10,.cls-11,.cls-12,.cls-13,.cls-14,.cls-4,.cls-5,.cls-6,.cls-7,.cls-8{stroke-miterlimit:10;}.cls-1{stroke-width:2.16px;}.cls-2{fill:#cad3da;}.cls-3{opacity:0.62;}.cls-4,.cls-5{fill:none;stroke:#cad3da;}.cls-5{stroke-dasharray:15.03 6.01;}.cls-6{stroke-width:2.77px;}.cls-7{stroke-width:4.99px;}.cls-8{stroke-width:3.88px;}.cls-9{fill:#afb4b7;}.cls-10{stroke-width:2.47px;}.cls-11{stroke-width:5.13px;}.cls-11,.cls-12,.cls-13{opacity:0.86;}.cls-12{stroke-width:8.73px;}.cls-13{stroke-width:5.29px;}.cls-14{stroke-width:6.89px;}.cls-15{fill:#366baa;}.cls-16{fill:#b64172;}.cls-17{fill:#c6d14f;}</style></defs><g id="Layer_2" data-name="Layer 2"><g id="Layer_1-2" data-name="Layer 1"><path class="cls-1" d="M402.85,68.5c2.87,0,5.91,3.19,5.91,6.53,0,2.11-1.53,6.67-4.9,6.67H394l-18.7,0a7,7,0,0,1-6.63-6.94A6.72,6.72,0,0,1,375.28,68a7,7,0,0,1,1.3.11c0-.22,0-.46,0-.68,0-5.77,4.65-9.9,10.33-10.46,4-.4,9.08.63,11.63,8.06A4.11,4.11,0,0,1,402.85,68.5Z"/><path class="cls-2" d="M403.71,82.91h-6.59V80.39h6.59c2.39,0,3.63-3.73,3.63-5.32a5.2,5.2,0,0,0-4.68-5.19,1.26,1.26,0,0,1-1.22-1.3,1.25,1.25,0,0,1,1.3-1.22,7.7,7.7,0,0,1,7.12,7.71,10.22,10.22,0,0,1-1.35,4.7A5.58,5.58,0,0,1,403.71,82.91Z"/><path class="cls-2" d="M393.82,82.92h0l-18.66,0a8.21,8.21,0,0,1-7.88-8.12,7.92,7.92,0,0,1,7.9-7.93h0A11.6,11.6,0,0,1,386.76,56a1.26,1.26,0,0,1,0,2.52,9.08,9.08,0,0,0-9.06,9.06c0,.19,0,.39,0,.6l.11,1.63-1.61-.32a6,6,0,0,0-1.05-.08,5.4,5.4,0,0,0-5.38,5.41,5.62,5.62,0,0,0,5.36,5.59l18.67,0a1.26,1.26,0,0,1,0,2.52Z"/><path class="cls-2" d="M398.41,73.92a3,3,0,1,1-3-3,3,3,0,0,1,3,3"/><path class="cls-2" d="M390.4,67.07A4.08,4.08,0,1,1,386.32,63a4.09,4.09,0,0,1,4.08,4.09"/><path class="cls-2" d="M402.63,60.84a5,5,0,1,1-5.05-5.06,5,5,0,0,1,5.05,5.06"/><path class="cls-1" d="M917.61,137.25c2.87,0,5.9,3.19,5.9,6.54,0,2.11-1.52,6.67-4.89,6.67h-9.91l-18.69,0a7,7,0,0,1-6.63-6.94,6.72,6.72,0,0,1,6.65-6.76,6.23,6.23,0,0,1,1.3.11c0-.22,0-.46,0-.69,0-5.77,4.65-9.89,10.33-10.45,4-.4,9.08.63,11.63,8.06A4.1,4.1,0,0,1,917.61,137.25Z"/><path class="cls-2" d="M918.47,151.67h-6.59v-2.52h6.59c2.39,0,3.62-3.74,3.62-5.33a5.19,5.19,0,0,0-4.67-5.18,1.27,1.27,0,0,1,.08-2.53,7.71,7.71,0,0,1,7.12,7.71,10.25,10.25,0,0,1-1.35,4.71A5.61,5.61,0,0,1,918.47,151.67Z"/><path class="cls-2" d="M908.58,151.68h0l-18.66,0a8.21,8.21,0,0,1-7.88-8.11,7.92,7.92,0,0,1,7.89-7.93h0a11.6,11.6,0,0,1,11.56-10.89,1.26,1.26,0,0,1,0,2.52,9.07,9.07,0,0,0-9.06,9.06c0,.19,0,.39,0,.59l.11,1.64L891,138.2a5.25,5.25,0,0,0-1.06-.08,5.4,5.4,0,0,0-5.37,5.41,5.62,5.62,0,0,0,5.36,5.59l18.67,0a1.27,1.27,0,0,1,0,2.53Z"/><path class="cls-2" d="M913.17,142.68a3,3,0,1,1-3-3,3,3,0,0,1,3,3"/><path class="cls-2" d="M905.15,135.83a4.08,4.08,0,1,1-4.08-4.09,4.08,4.08,0,0,1,4.08,4.09"/><path class="cls-2" d="M917.39,129.59a5,5,0,1,1-5-5,5.06,5.06,0,0,1,5,5"/><g class="cls-3"><path class="cls-4" d="M69.53,123.15c2.45.47,4.91.92,7.38,1.37"/><path class="cls-5" d="M82.82,125.58c101.88,17.83,217.51,19.57,287,12.08,72.56-7.81,94.77-26.79,190.83-35.72s174.54,22.32,212.88,27.91c35.8,5.21,90.75,2.94,139.68-6.62"/><path class="cls-4" d="M916.18,122.64c2.46-.5,4.91-1,7.33-1.55"/><path class="cls-4" d="M.09,136.17c2.45.47,4.91.92,7.38,1.37"/><path class="cls-5" d="M13.38,138.6c101.88,17.83,217.5,19.56,287,12.08C373,142.86,395.17,123.89,491.23,115s174.54,22.32,212.88,27.9c35.8,5.22,90.75,2.95,139.68-6.61"/><path class="cls-4" d="M846.74,135.66c2.46-.5,4.91-1,7.33-1.55"/><path class="cls-4" d="M112.18,91c2.45.47,4.9.93,7.37,1.38"/><path class="cls-5" d="M125.47,93.46c101.87,17.83,217.5,19.57,287,12.08C485,97.73,507.25,78.75,603.31,69.82S777.85,92.15,816.19,97.73c35.81,5.21,90.75,2.94,139.68-6.62"/><path class="cls-4" d="M958.82,90.53q3.69-.75,7.34-1.55"/><path class="cls-4" d="M42.74,104.05q3.66.7,7.37,1.38"/><path class="cls-5" d="M56,106.48c101.87,17.83,217.5,19.57,287,12.08,72.56-7.81,94.77-26.79,190.83-35.72s174.54,22.33,212.88,27.91c35.81,5.21,90.75,2.94,139.68-6.62"/><path class="cls-4" d="M889.38,103.55q3.69-.75,7.34-1.56"/></g><path class="cls-6" d="M836.54,78.72c3.69,0,7.58,4.09,7.58,8.38,0,2.71-2,8.55-6.28,8.55h-12.7l-24,0c-4.53,0-8.5-4.14-8.5-8.9a8.62,8.62,0,0,1,8.52-8.67,8.37,8.37,0,0,1,1.67.14c0-.29,0-.59,0-.88,0-7.4,6-12.68,13.25-13.4,5.1-.51,11.63.81,14.91,10.33A5.25,5.25,0,0,1,836.54,78.72Z"/><path class="cls-2" d="M837.65,97.2H829.2V94h8.45c3.06,0,4.65-4.79,4.65-6.83,0-3.44-2.81-6.54-6-6.65a1.62,1.62,0,0,1,.1-3.23c5,.16,9.13,4.69,9.13,9.88a13,13,0,0,1-1.73,6C842.3,95.77,840.11,97.2,837.65,97.2Z"/><path class="cls-2" d="M825,97.21h0l-23.92,0c-5.39,0-10.11-4.86-10.11-10.4A10.16,10.16,0,0,1,801.06,76.6h0a14.87,14.87,0,0,1,14.82-14,1.62,1.62,0,1,1,0,3.23,11.63,11.63,0,0,0-11.61,11.62c0,.24,0,.5,0,.76l.13,2.09-2.06-.4a6.44,6.44,0,0,0-1.35-.11,6.92,6.92,0,0,0-6.89,6.94A7.2,7.2,0,0,0,801,93.93L825,94a1.62,1.62,0,0,1,0,3.23Z"/><path class="cls-2" d="M830.85,85.68a3.79,3.79,0,1,1-3.79-3.8,3.79,3.79,0,0,1,3.79,3.8"/><path class="cls-2" d="M820.58,76.89a5.23,5.23,0,1,1-5.23-5.24,5.23,5.23,0,0,1,5.23,5.24"/><path class="cls-2" d="M836.26,68.9a6.47,6.47,0,1,1-6.47-6.48,6.47,6.47,0,0,1,6.47,6.48"/><path class="cls-7" d="M188.14,173.43c6.63,0,13.63,7.35,13.63,15.07,0,4.88-3.52,15.4-11.3,15.4H167.62l-43.12-.08c-8.16,0-15.3-7.45-15.3-16a15.51,15.51,0,0,1,15.33-15.6,14.76,14.76,0,0,1,3,.25c0-.52,0-1.06,0-1.58,0-13.32,10.74-22.83,23.84-24.13,9.18-.91,20.94,1.46,26.84,18.6C183.39,164.89,187.92,169.36,188.14,173.43Z"/><path class="cls-2" d="M190.12,206.69h-15.2v-5.82h15.2c5.52,0,8.37-8.62,8.37-12.29,0-6.19-5-11.78-10.79-12a2.91,2.91,0,1,1,.19-5.81c8.9.28,16.42,8.43,16.42,17.78a23.34,23.34,0,0,1-3.12,10.86C198.49,204.11,194.56,206.69,190.12,206.69Z"/><path class="cls-2" d="M167.3,206.7h0l-43.07-.08c-9.68,0-18.18-8.74-18.18-18.71a18.28,18.28,0,0,1,18.22-18.31h.08A26.76,26.76,0,0,1,151,144.48a2.91,2.91,0,1,1,0,5.82,20.92,20.92,0,0,0-20.89,20.9c0,.43,0,.9,0,1.37l.24,3.78-3.71-.74a12.64,12.64,0,0,0-14.83,12.3c0,6.87,5.78,12.89,12.37,12.89l43.07.08a2.91,2.91,0,0,1,0,5.82Z"/><path class="cls-2" d="M177.9,185.94a6.83,6.83,0,1,1-6.83-6.83,6.83,6.83,0,0,1,6.83,6.83"/><path class="cls-2" d="M159.41,170.13A9.42,9.42,0,1,1,150,160.7a9.43,9.43,0,0,1,9.42,9.43"/><path class="cls-2" d="M187.63,155.75A11.64,11.64,0,1,1,176,144.09a11.65,11.65,0,0,1,11.64,11.66"/><path class="cls-1" d="M631.51,135.65c2.88,0,5.91,3.18,5.91,6.53,0,2.11-1.53,6.67-4.9,6.67h-9.9l-18.69,0a7,7,0,0,1-6.63-6.94,6.71,6.71,0,0,1,6.64-6.76,6.17,6.17,0,0,1,1.3.11c0-.22,0-.46,0-.68,0-5.78,4.65-9.9,10.33-10.46,4-.4,9.08.63,11.63,8.06A4.1,4.1,0,0,1,631.51,135.65Z"/><path class="cls-2" d="M632.37,150.06h-6.59v-2.52h6.59c2.39,0,3.63-3.73,3.63-5.33a5.19,5.19,0,0,0-4.68-5.18,1.27,1.27,0,0,1-1.22-1.3,1.26,1.26,0,0,1,1.3-1.22,7.69,7.69,0,0,1,7.12,7.7,10.1,10.1,0,0,1-1.35,4.71A5.58,5.58,0,0,1,632.37,150.06Z"/><path class="cls-2" d="M622.48,150.07h0l-18.67,0a8.21,8.21,0,0,1-7.88-8.11,7.92,7.92,0,0,1,7.9-7.93h0a11.6,11.6,0,0,1,11.56-10.89,1.26,1.26,0,0,1,0,2.52,9.06,9.06,0,0,0-9,9.06c0,.19,0,.39,0,.59l.1,1.64-1.61-.32a6,6,0,0,0-1-.08,5.4,5.4,0,0,0-5.38,5.41,5.62,5.62,0,0,0,5.36,5.59l18.67,0a1.27,1.27,0,0,1,0,2.53Z"/><path class="cls-2" d="M627.07,141.07a3,3,0,1,1-3-3,3,3,0,0,1,3,3"/><path class="cls-2" d="M619.06,134.22a4.08,4.08,0,1,1-4.08-4.09,4.08,4.08,0,0,1,4.08,4.09"/><path class="cls-2" d="M631.29,128a5,5,0,1,1-5-5,5,5,0,0,1,5,5"/><path class="cls-8" d="M708.06,38.94c5.16,0,10.61,5.73,10.61,11.73,0,3.8-2.74,12-8.79,12H692.09l-33.57-.06c-6.35,0-11.91-5.8-11.91-12.46A12.07,12.07,0,0,1,658.55,38a12,12,0,0,1,2.33.19c0-.4,0-.82,0-1.22,0-10.37,8.36-17.77,18.56-18.79,7.14-.71,16.3,1.14,20.89,14.48C704.36,32.3,707.89,35.78,708.06,38.94Z"/><path class="cls-2" d="M709.6,64.83H697.77V60.3H709.6c4.3,0,6.52-6.7,6.52-9.56,0-4.82-3.93-9.17-8.4-9.32a2.27,2.27,0,0,1,.14-4.53c6.94.23,12.79,6.57,12.79,13.85a18.27,18.27,0,0,1-2.43,8.45C716.12,62.83,713.06,64.83,709.6,64.83Z"/><path class="cls-2" d="M691.84,64.84h0l-33.53-.06c-7.54,0-14.15-6.8-14.15-14.56A14.24,14.24,0,0,1,658.34,36h.07a20.82,20.82,0,0,1,20.76-19.55,2.27,2.27,0,0,1,0,4.53A16.29,16.29,0,0,0,662.9,37.21c0,.33,0,.7,0,1.07l.18,2.93-2.88-.57a10,10,0,0,0-1.9-.15,9.7,9.7,0,0,0-9.65,9.73c0,5.34,4.5,10,9.63,10l33.52.06a2.27,2.27,0,1,1,0,4.53Z"/><path class="cls-2" d="M700.09,48.68a5.31,5.31,0,1,1-5.31-5.32,5.32,5.32,0,0,1,5.31,5.32"/><path class="cls-2" d="M685.69,36.38A7.33,7.33,0,1,1,678.37,29a7.33,7.33,0,0,1,7.32,7.35"/><path class="cls-2" d="M707.66,25.18a9.06,9.06,0,1,1-9.06-9.07,9.06,9.06,0,0,1,9.06,9.07"/><path class="cls-6" d="M79.56,81.65c3.69,0,7.57,4.09,7.57,8.37,0,2.71-1.95,8.56-6.27,8.56H68.16l-24,0c-4.53,0-8.5-4.14-8.5-8.9A8.62,8.62,0,0,1,44.22,81a9.19,9.19,0,0,1,1.67.13c0-.28,0-.58,0-.87,0-7.4,6-12.69,13.24-13.41,5.1-.51,11.64.81,14.91,10.34A5.25,5.25,0,0,1,79.56,81.65Z"/><path class="cls-2" d="M80.66,100.13H72.22V96.89h8.44c3.07,0,4.65-4.78,4.65-6.82,0-3.44-2.8-6.55-6-6.65a1.62,1.62,0,1,1,.1-3.23c5,.16,9.13,4.68,9.13,9.88a13,13,0,0,1-1.74,6C85.31,98.7,83.13,100.13,80.66,100.13Z"/><path class="cls-2" d="M68,100.13h0l-23.93,0c-5.38,0-10.1-4.86-10.1-10.4A10.16,10.16,0,0,1,44.07,79.52h0a14.87,14.87,0,0,1,14.82-14,1.62,1.62,0,0,1,0,3.24A11.63,11.63,0,0,0,47.33,80.41c0,.24,0,.5,0,.76l.14,2.1-2.06-.41a7.34,7.34,0,0,0-1.36-.1,6.92,6.92,0,0,0-6.89,6.93,7.21,7.21,0,0,0,6.87,7.17L68,96.9a1.62,1.62,0,1,1,0,3.23Z"/><path class="cls-2" d="M73.87,88.6a3.79,3.79,0,1,1-3.79-3.8,3.8,3.8,0,0,1,3.79,3.8"/><path class="cls-2" d="M63.6,79.82a5.23,5.23,0,1,1-5.23-5.24,5.24,5.24,0,0,1,5.23,5.24"/><path class="cls-2" d="M79.28,71.83a6.47,6.47,0,1,1-6.47-6.48,6.48,6.48,0,0,1,6.47,6.48"/><path class="cls-6" d="M606.43,79.22c3.68,0,7.57,4.09,7.57,8.38,0,2.71-2,8.55-6.27,8.55H595l-24,0c-4.53,0-8.5-4.14-8.5-8.9a8.62,8.62,0,0,1,8.52-8.67,8.37,8.37,0,0,1,1.67.14c0-.29,0-.59,0-.88,0-7.4,6-12.68,13.24-13.4,5.1-.51,11.64.81,14.91,10.33A5.25,5.25,0,0,1,606.43,79.22Z"/><path class="cls-2" d="M607.53,97.7h-8.44V94.47h8.44c3.07,0,4.65-4.79,4.65-6.83,0-3.44-2.8-6.54-6-6.65a1.62,1.62,0,1,1,.1-3.23c5,.16,9.13,4.69,9.13,9.88a13.05,13.05,0,0,1-1.74,6C612.18,96.27,610,97.7,607.53,97.7Z"/><path class="cls-2" d="M594.85,97.71h0l-23.93,0c-5.38,0-10.1-4.86-10.1-10.4A10.16,10.16,0,0,1,570.94,77.1h0a14.86,14.86,0,0,1,14.82-14,1.62,1.62,0,0,1,0,3.23A11.62,11.62,0,0,0,574.2,78c0,.24,0,.5,0,.76l.14,2.1-2.07-.41a7,7,0,0,0-1.35-.11,6.92,6.92,0,0,0-6.89,6.94,7.2,7.2,0,0,0,6.87,7.16l23.93,0a1.62,1.62,0,1,1,0,3.23Z"/><path class="cls-2" d="M600.74,86.18a3.79,3.79,0,1,1-3.79-3.8,3.8,3.8,0,0,1,3.79,3.8"/><path class="cls-2" d="M590.47,77.39a5.24,5.24,0,1,1-5.23-5.24,5.24,5.24,0,0,1,5.23,5.24"/><path class="cls-2" d="M606.15,69.4a6.47,6.47,0,1,1-6.47-6.48,6.48,6.48,0,0,1,6.47,6.48"/><path class="cls-9" d="M383.07,195h-44.2v65.42H322.39V195H190.5V183.28L317.65,2.63h21.22V179.94h44.2Zm-60.68-15.09V106.63q0-53,2.45-88.92h-1.4q-3.51,6.49-21.57,33l-90.5,129.25Z"/><path class="cls-9" d="M573,131.54q0,67.52-20.61,100T490.05,264q-40.16,0-61-33.41t-20.87-99q0-67,20.26-99.27T490.05,0q40.51,0,61.74,33.41T573,131.54Zm-145.92,0q0,59.63,15.61,88.13t47.35,28.5q33.15,0,48.32-29.47t15.17-87.16q0-56.82-15.17-86.29T490.05,15.78q-33.14,0-48.05,29.47T427.09,131.54Z"/><path class="cls-9" d="M793.12,195h-44.2v65.42H732.43V195H600.55V183.28L727.7,2.63h21.22V179.94h44.2Zm-60.69-15.09V106.63q0-53,2.46-88.92h-1.4q-3.51,6.49-21.58,33L621.42,179.94Z"/><path class="cls-10" d="M220.61,56.6c3.3,0,6.77,3.65,6.77,7.48,0,2.42-1.75,7.64-5.61,7.64H210.43l-21.41,0a8,8,0,0,1-7.6-7.95A7.7,7.7,0,0,1,189,56a8.1,8.1,0,0,1,1.49.12c0-.25,0-.52,0-.78,0-6.61,5.33-11.33,11.83-12,4.56-.45,10.4.73,13.33,9.24A4.68,4.68,0,0,1,220.61,56.6Z"/><path class="cls-2" d="M221.6,73.11h-7.55V70.22h7.55c2.74,0,4.15-4.27,4.15-6.1a6,6,0,0,0-5.35-5.94,1.45,1.45,0,0,1,.09-2.89,8.83,8.83,0,0,1,8.15,8.83,11.54,11.54,0,0,1-1.55,5.39C225.75,71.83,223.8,73.11,221.6,73.11Z"/><path class="cls-2" d="M210.27,73.12h0l-21.38,0a9.4,9.4,0,0,1-9-9.29,9.08,9.08,0,0,1,9-9.09h0a13.27,13.27,0,0,1,13.24-12.47,1.45,1.45,0,0,1,0,2.89,10.39,10.39,0,0,0-10.38,10.37c0,.22,0,.45,0,.68l.12,1.88-1.85-.37a6.6,6.6,0,0,0-1.2-.09,6.18,6.18,0,0,0-6.16,6.2,6.44,6.44,0,0,0,6.14,6.4l21.38,0a1.45,1.45,0,0,1,0,2.89Z"/><path class="cls-2" d="M215.53,62.81a3.39,3.39,0,1,1-3.39-3.39,3.4,3.4,0,0,1,3.39,3.39"/><path class="cls-2" d="M206.35,55a4.68,4.68,0,1,1-4.67-4.68A4.68,4.68,0,0,1,206.35,55"/><path class="cls-2" d="M220.36,47.82A5.78,5.78,0,1,1,214.58,42a5.78,5.78,0,0,1,5.78,5.78"/><path class="cls-11" d="M291.21,61.86c6.82,0,14,7.57,14,15.5,0,5-3.62,15.84-11.62,15.84H278l-7.85,0-44.36-.08c-8.39,0-15.74-7.67-15.74-16.47a16,16,0,0,1,15.77-16.05,15.73,15.73,0,0,1,3.09.25c0-.53-.05-1.08-.05-1.62,0-13.7,11-23.48,24.52-24.82,9.44-.94,21.55,1.5,27.61,19.13C286.32,53.08,291,57.68,291.21,61.86Z"/><path class="cls-2" d="M293.25,96.07H277.61v-6h15.64c5.68,0,8.61-8.86,8.61-12.64,0-6.37-5.19-12.12-11.1-12.31a3,3,0,0,1,.19-6c9.16.3,16.9,8.68,16.9,18.3a24.08,24.08,0,0,1-3.21,11.17C301.86,93.43,297.81,96.07,293.25,96.07Z"/><path class="cls-2" d="M269.77,96.09h0L225.46,96c-10,0-18.7-9-18.7-19.25A18.81,18.81,0,0,1,225.5,57.92h.09A27.52,27.52,0,0,1,253,32.08a3,3,0,1,1,0,6,21.52,21.52,0,0,0-21.49,21.5c0,.44,0,.93,0,1.41l.25,3.88L228,64.11a12.47,12.47,0,0,0-2.51-.2,12.82,12.82,0,0,0-12.76,12.85c0,7.06,5.95,13.26,12.73,13.26l44.31.08a3,3,0,0,1,0,6Z"/><path class="cls-2" d="M280.67,74.74a7,7,0,1,1-7-7,7,7,0,0,1,7,7"/><path class="cls-2" d="M261.65,58.47a9.69,9.69,0,1,1-9.68-9.7,9.69,9.69,0,0,1,9.68,9.7"/><path class="cls-2" d="M290.68,43.68a12,12,0,1,1-12-12,12,12,0,0,1,12,12"/><path class="cls-12" d="M508.73,115c11.61.08,23.87,12.88,23.87,26.4,0,8.54-6.16,27-19.79,27H486.16l-13.37,0-75.53-.14c-14.29,0-26.8-13-26.8-28s12-27.33,26.86-27.33a26.71,26.71,0,0,1,5.25.43c-.05-.89-.09-1.84-.09-2.75,0-23.33,18.81-40,41.75-42.27,16.08-1.59,36.69,2.56,47,32.58C500.4,100.09,508.34,107.92,508.73,115Z"/><path class="cls-2" d="M512.2,173.29H485.58V163.1H512.2c9.67,0,14.66-15.09,14.66-21.52,0-10.84-8.83-20.64-18.9-21a5.1,5.1,0,0,1,.32-10.19c15.6.5,28.77,14.77,28.77,31.15a41,41,0,0,1-5.46,19C526.86,168.78,520,173.29,512.2,173.29Z"/><path class="cls-2" d="M472.23,173.32h0l-75.43-.14c-17,0-31.85-15.32-31.85-32.78a32,32,0,0,1,31.92-32.06H397a46.87,46.87,0,0,1,46.71-44,5.1,5.1,0,1,1,0,10.2,36.64,36.64,0,0,0-36.59,36.61c0,.75,0,1.58.08,2.4l.42,6.61-6.5-1.29a22.72,22.72,0,0,0-4.26-.33,21.83,21.83,0,0,0-21.73,21.87c0,12,10.13,22.59,21.67,22.59l75.44.13a5.1,5.1,0,0,1,0,10.2Z"/><path class="cls-2" d="M490.78,137a11.95,11.95,0,1,1-11.95-12,12,12,0,0,1,11.95,12"/><path class="cls-2" d="M458.4,109.27a16.49,16.49,0,1,1-16.49-16.52,16.5,16.5,0,0,1,16.49,16.52"/><path class="cls-2" d="M507.83,84.08a20.39,20.39,0,1,1-20.38-20.42,20.4,20.4,0,0,1,20.38,20.42"/><path class="cls-13" d="M806.27,118.69c7,0,14.46,7.81,14.46,16,0,5.17-3.73,16.34-12,16.34H792.59l-8.1,0L738.73,151c-8.66,0-16.24-7.91-16.24-17a16.46,16.46,0,0,1,16.27-16.56,16.76,16.76,0,0,1,3.19.26c0-.54-.06-1.11-.06-1.67,0-14.13,11.4-24.23,25.3-25.61,9.75-1,22.23,1.55,28.49,19.75C801.22,109.64,806,114.38,806.27,118.69Z"/><path class="cls-2" d="M808.37,154H792.24v-6.18h16.13c5.86,0,8.89-9.14,8.89-13,0-6.56-5.36-12.5-11.46-12.69a3.09,3.09,0,0,1,.2-6.18c9.45.31,17.43,8.95,17.43,18.87a24.78,24.78,0,0,1-3.31,11.53C817.26,151.26,813.08,154,808.37,154Z"/><path class="cls-2" d="M784.15,154h0l-45.71-.09c-10.28,0-19.3-9.28-19.3-19.86a19.41,19.41,0,0,1,19.35-19.43h.08A28.4,28.4,0,0,1,766.88,88a3.09,3.09,0,0,1,0,6.18,22.21,22.21,0,0,0-22.18,22.18c0,.46,0,1,0,1.46l.25,4-3.93-.78a13.43,13.43,0,0,0-15.75,13c0,7.29,6.14,13.69,13.13,13.69l45.71.08a3.09,3.09,0,0,1,0,6.18Z"/><path class="cls-2" d="M795.4,132a7.24,7.24,0,1,1-7.24-7.26A7.25,7.25,0,0,1,795.4,132"/><path class="cls-2" d="M775.78,115.2a10,10,0,1,1-10-10,10,10,0,0,1,10,10"/><path class="cls-2" d="M805.73,99.93a12.36,12.36,0,1,1-12.35-12.37,12.36,12.36,0,0,1,12.35,12.37"/><path class="cls-14" d="M542.63,264.33c9.17.07,18.84,10.17,18.84,20.84,0,6.74-4.86,21.29-15.61,21.29h-21l-10.56,0-59.62-.11c-11.28,0-21.16-10.3-21.16-22.14a21.44,21.44,0,0,1,21.2-21.57,21,21,0,0,1,4.15.34c0-.71-.07-1.46-.07-2.18,0-18.41,14.85-31.56,33-33.36,12.69-1.26,29,2,37.11,25.72C536.06,252.53,542.32,258.71,542.63,264.33Z"/><path class="cls-15" d="M545.37,310.32h-21v-8.05h21c7.64,0,11.58-11.91,11.58-17,0-8.56-7-16.29-14.93-16.54a4,4,0,0,1,.26-8.05c12.31.4,22.71,11.66,22.71,24.59a32.45,32.45,0,0,1-4.31,15C557,306.76,551.51,310.32,545.37,310.32Z"/><path class="cls-15" d="M513.82,310.34h0l-59.54-.11c-13.4,0-25.15-12.09-25.15-25.88A25.28,25.28,0,0,1,454.32,259h.12a37,37,0,0,1,36.87-34.74,4,4,0,0,1,0,8,28.92,28.92,0,0,0-28.89,28.9c0,.6,0,1.25.06,1.9l.33,5.22-5.13-1a17.49,17.49,0,0,0-20.51,17c0,9.5,8,17.83,17.1,17.83l59.56.11a4,4,0,0,1,0,8Z"/><path class="cls-16" d="M528.47,281.63a9.44,9.44,0,1,1-9.44-9.45,9.46,9.46,0,0,1,9.44,9.45"/><path class="cls-17" d="M502.9,259.77a13,13,0,1,1-13-13,13,13,0,0,1,13,13"/><path class="cls-15" d="M541.93,239.89a16.1,16.1,0,1,1-16.1-16.12,16.11,16.11,0,0,1,16.1,16.12"/></g></g></svg>