<svg width="20" height="20" viewBox="0 0 20 20" fill="white" xmlns="http://www.w3.org/2000/svg">
  <path fill="none" fill-rule="evenodd" clip-rule="evenodd" d="M9.99981 0.144226C4.5581 0.144226 0.144043 4.55829 0.144043 10C0.144043 15.4417 4.5581 19.8558 9.99981 19.8558C15.4415 19.8558 19.8556 15.4417 19.8556 10C19.8556 4.55829 15.4415 0.144226 9.99981 0.144226ZM9.99981 2.21153C14.2997 2.21153 17.7883 5.70012 17.7883 10C17.7883 14.2999 14.2997 17.7885 9.99981 17.7885C5.69993 17.7885 2.21135 14.2999 2.21135 10C2.21135 5.70012 5.69993 2.21153 9.99981 2.21153ZM9.37481 3.46153C9.36279 3.16406 9.56412 2.90264 9.85558 2.83653H9.9277C10.105 2.8125 10.2853 2.86658 10.4205 2.98677C10.5557 3.10997 10.6278 3.28125 10.6248 3.46153V4.23076C10.6248 4.57632 10.3454 4.85576 9.99981 4.85576C9.65426 4.85576 9.37481 4.57632 9.37481 4.23076V3.46153ZM6.63443 3.70192C6.6194 3.70793 6.60137 3.71694 6.58635 3.72596C6.39705 3.77103 6.23779 3.90625 6.16267 4.08653C6.08755 4.26682 6.10258 4.47115 6.20174 4.63942L6.58635 5.3125C6.69152 5.51682 6.89885 5.64603 7.12722 5.64903C7.35558 5.64903 7.56892 5.52584 7.6771 5.32451C7.78527 5.12319 7.77325 4.8768 7.64404 4.6875L7.25943 4.03846C7.15426 3.83113 6.94092 3.69891 6.70654 3.70192H6.63443ZM12.7402 4.03846C12.8243 3.8792 12.9746 3.76502 13.1489 3.72596C13.3862 3.68088 13.6266 3.77704 13.7678 3.97235C13.9061 4.17067 13.9181 4.43209 13.7979 4.63942L13.4133 5.3125C13.3081 5.51682 13.1008 5.64603 12.8724 5.64903C12.644 5.64903 12.4307 5.52584 12.3225 5.32451C12.2144 5.12319 12.2264 4.8768 12.3556 4.6875L12.7402 4.03846ZM4.23058 6.10576C3.96616 6.14483 3.75883 6.34915 3.71676 6.61358C3.67169 6.875 3.8039 7.13641 4.03827 7.25961L4.68731 7.64423C4.87662 7.77343 5.12301 7.78545 5.32433 7.67728C5.52565 7.56911 5.64885 7.35576 5.64885 7.1274C5.64585 6.89903 5.51664 6.6917 5.31231 6.58653L4.63924 6.20192C4.54008 6.13882 4.42289 6.10576 4.3027 6.10576H4.23058ZM10.5287 8.72596L16.4181 6.20192L16.4902 6.34615L11.37 10.1683C11.2889 10.8594 10.712 11.3942 9.99981 11.3942C9.23058 11.3942 8.60558 10.7692 8.60558 10C8.60558 9.23076 9.23058 8.60576 9.99981 8.60576C10.1831 8.60576 10.3664 8.65985 10.5287 8.72596ZM3.245 9.375C2.89945 9.43509 2.66808 9.76262 2.72818 10.1082C2.78827 10.4537 3.1158 10.6851 3.46135 10.625H4.23058C4.57613 10.625 4.85558 10.3455 4.85558 10C4.85558 9.65444 4.57613 9.375 4.23058 9.375H3.46135H3.38924H3.31712H3.245ZM15.0359 10.1082C14.9758 9.76262 15.2071 9.43509 15.5527 9.375H15.6248H15.6969H15.769H16.5383C16.8838 9.375 17.1633 9.65444 17.1633 10C17.1633 10.3455 16.8838 10.625 16.5383 10.625H15.769C15.4235 10.6851 15.096 10.4537 15.0359 10.1082ZM4.90366 12.2596C4.82553 12.2776 4.75342 12.3107 4.68731 12.3558L4.03827 12.7404C3.81291 12.8275 3.65666 13.0379 3.64164 13.2812C3.62962 13.5216 3.75883 13.75 3.97217 13.8612C4.18851 13.9724 4.44993 13.9483 4.63924 13.7981L5.31231 13.4135C5.56472 13.2752 5.68791 12.9778 5.60678 12.7013C5.52565 12.4249 5.26424 12.2416 4.97577 12.2596H4.90366ZM14.3658 12.7674C14.4079 12.503 14.6152 12.2987 14.8796 12.2596H14.9517C15.0779 12.2536 15.2041 12.2867 15.3123 12.3558L15.9614 12.7404C16.1867 12.8275 16.343 13.0379 16.358 13.2812C16.37 13.5216 16.2408 13.75 16.0275 13.8612C15.8111 13.9724 15.5497 13.9483 15.3604 13.7981L14.6873 13.4135C14.4529 13.2903 14.3207 13.0288 14.3658 12.7674Z" fill="white"/>
</svg>
