<?xml version="1.0" encoding="utf-8"?>
<!-- Generator: Adobe Illustrator 19.0.0, SVG Export Plug-In . SVG Version: 6.00 Build 0)  -->
<svg width="20" height="20" version="1.1" id="Capa_1" xmlns="http://www.w3.org/2000/svg" xmlns:xlink="http://www.w3.org/1999/xlink" x="0px" y="0px"
	 viewBox="-136 -63.7 426.7 426.7" style="enable-background:new -136 -63.7 426.7 426.7;" xml:space="preserve">
<style type="text/css">
	.st0{fill:#FFFFFF;}
</style>
<g>
	<g>
		<g>
			<path class="st0" d="M2.7,128.3c17.7,0,32-14.3,32-32s-14.3-32-32-32s-32,14.3-32,32S-15,128.3,2.7,128.3z"/>
			<path class="st0" d="M152,128.3c17.7,0,32-14.3,32-32s-14.3-32-32-32s-32,14.3-32,32S134.3,128.3,152,128.3z"/>
			<path class="st0" d="M77.3,235c-31.5,0-58.7-17.3-73.5-42.7h-35.7C-14.8,236,27.6,267,77.3,267s92.2-31,109.2-74.7h-35.7
				C136,217.7,108.8,235,77.3,235z"/>
			<path class="st0" d="M77.1-63.7C-40.6-63.7-136,31.9-136,149.7S-40.6,363,77.1,363c118,0,213.5-95.6,213.5-213.3
				S195.1-63.7,77.1-63.7z M77.3,320.3C-17,320.3-93.3,244-93.3,149.7S-17-21,77.3-21S248,55.4,248,149.7S171.6,320.3,77.3,320.3z"
				/>
		</g>
	</g>
</g>
</svg>
